<?xml version="1.0" encoding="utf-8"?>
<!-- Generator: Adobe Illustrator 21.0.2, SVG Export Plug-In . SVG Version: 6.00 Build 0)  -->
<!DOCTYPE svg PUBLIC "-//W3C//DTD SVG 1.1//EN" "http://www.w3.org/Graphics/SVG/1.1/DTD/svg11.dtd">
<svg version="1.1"
	 id="svg2" inkscape:version="0.48.3.1 r9886" sodipodi:docname="zauberware_logo_color.svg" xmlns:cc="http://creativecommons.org/ns#" xmlns:dc="http://purl.org/dc/elements/1.1/" xmlns:inkscape="http://www.inkscape.org/namespaces/inkscape" xmlns:rdf="http://www.w3.org/1999/02/22-rdf-syntax-ns#" xmlns:sodipodi="http://sodipodi.sourceforge.net/DTD/sodipodi-0.dtd" xmlns:svg="http://www.w3.org/2000/svg"
	 xmlns="http://www.w3.org/2000/svg" xmlns:xlink="http://www.w3.org/1999/xlink" x="0px" y="0px" viewBox="0 0 800 800"
	 style="enable-background:new 0 0 800 800;" xml:space="preserve">
<style type="text/css">
	.st0{fill:#089CD9;}
	.st1{fill:#333333;}
</style>
<sodipodi:namedview  bordercolor="#666666" borderopacity="1.0" id="base" inkscape:current-layer="layer1" inkscape:cx="420.23313" inkscape:cy="479.31814" inkscape:document-units="px" inkscape:pageopacity="0.0" inkscape:pageshadow="2" inkscape:window-height="744" inkscape:window-maximized="1" inkscape:window-width="1366" inkscape:window-x="0" inkscape:window-y="24" inkscape:zoom="1" pagecolor="#ffffff" showgrid="false">
	</sodipodi:namedview>
<g id="g3120" transform="matrix(0.00377014,-1.2432024,-1.2432024,-0.00377014,1172.7825,806.43312)">
	<path id="rect3096" class="st0" d="M470.8,598.6h31.4c4.7,0,8.6,3.8,8.6,8.6v31.4c0,4.7-3.8,8.6-8.6,8.6h-31.4
		c-4.7,0-8.6-3.8-8.6-8.6v-31.3C462.2,602.4,466.1,598.6,470.8,598.6z"/>
	<path id="rect3098" class="st1" d="M390.8,586.3h47c7.1,0,12.9,5.7,12.9,12.9v47c0,7.1-5.7,12.9-12.9,12.9h-47
		c-7.1,0-12.9-5.7-12.9-12.9v-47C377.9,592.1,383.7,586.3,390.8,586.3z"/>
	<path id="rect3100" class="st0" d="M526.9,496.2h58.4c8.8,0,16,7.1,16,16v58.4c0,8.8-7.1,16-16,16h-58.4c-8.8,0-16-7.1-16-16v-58.4
		C510.9,503.4,518,496.2,526.9,496.2z"/>
	<path id="rect3102" class="st1" d="M445.7,535.9h19.7c3,0,5.4,2.4,5.4,5.4V561c0,3-2.4,5.4-5.4,5.4h-19.7c-3,0-5.4-2.4-5.4-5.4
		v-19.7C440.3,538.3,442.8,535.9,445.7,535.9z"/>
	<path id="rect3252" class="st0" d="M465.2,359.4h56.4c8.5,0,15.4,6.9,15.4,15.4v56.4c0,8.5-6.9,15.4-15.4,15.4l-56.4,0
		c-8.5,0-15.4-6.9-15.4-15.4l0-56.4C449.7,366.3,456.7,359.4,465.2,359.4z"/>
	<path id="rect3164" class="st0" d="M364.2,704.5l25,0c3.7,0,6.9,3,6.9,6.9v25c0,3.7-3,6.9-6.9,6.9h-25c-3.7,0-6.9-3-6.9-6.9v-25
		C357.4,707.5,360.4,704.5,364.2,704.5z"/>
</g>
<g id="g3120_1_" transform="matrix(0.00377014,-1.2432024,-1.2432024,-0.00377014,1172.7825,806.43312)">
	<path id="rect3094_1_" class="st1" d="M364.8,386.3h32.8c4.9,0,9,4,9,9v32.8c0,4.9-4,9-9,9h-32.8c-4.9,0-9-4-9-9v-32.8
		C355.8,390.3,359.9,386.3,364.8,386.3z"/>
	<path id="rect3096_1_" class="st0" d="M381,491.9l31.4,0c4.7,0,8.6,3.8,8.6,8.6v31.4c0,4.7-3.8,8.6-8.6,8.6H381
		c-4.7,0-8.6-3.8-8.6-8.6v-31.3C372.5,495.7,376.3,491.9,381,491.9z"/>
	<path id="rect3100_1_" class="st0" d="M267.6,591.3H326c8.8,0,16,7.1,16,16v58.4c0,8.8-7.1,16-16,16l-58.4,0c-8.8,0-16-7.1-16-16
		l0-58.4C251.6,598.4,258.8,591.3,267.6,591.3z"/>
	<path id="rect3102_1_" class="st1" d="M242,531.6h19.7c3,0,5.4,2.4,5.4,5.4v19.7c0,3-2.4,5.4-5.4,5.4H242c-3,0-5.4-2.4-5.4-5.4
		v-19.7C236.6,534,239,531.6,242,531.6z"/>
	<path id="rect3252_1_" class="st0" d="M276.2,450.4h42.3c6.4,0,11.6,5.2,11.6,11.6v42.3c0,6.4-5.2,11.5-11.6,11.5h-42.3
		c-6.4,0-11.6-5.2-11.6-11.6v-42.3C264.6,455.5,269.8,450.4,276.2,450.4z"/>
</g>
<sodipodi:namedview  bordercolor="#666666" borderopacity="1.0" id="base" inkscape:current-layer="layer1" inkscape:cx="420.23313" inkscape:cy="479.31814" inkscape:document-units="px" inkscape:pageopacity="0.0" inkscape:pageshadow="2" inkscape:window-height="744" inkscape:window-maximized="1" inkscape:window-width="1366" inkscape:window-x="0" inkscape:window-y="24" inkscape:zoom="1" pagecolor="#ffffff" showgrid="false">
	</sodipodi:namedview>
<g id="g3120_3_" transform="matrix(0.00377014,-1.2432024,-1.2432024,-0.00377014,1172.7825,806.43312)">
	<path id="rect3094_3_" class="st1" d="M288.3,724.3h32.8c4.9,0,9,4,9,9v32.8c0,4.9-4,9-9,9h-32.8c-4.9,0-9-4-9-9v-32.8
		C279.4,728.3,283.3,724.3,288.3,724.3z"/>
	<path id="rect3098_1_" class="st1" d="M173.3,828.8h47c7.1,0,12.9,5.7,12.9,12.9v47c0,7.1-5.7,12.9-12.9,12.9h-47
		c-7.1,0-12.9-5.7-12.9-12.9v-47C160.4,834.6,166.2,828.8,173.3,828.8z"/>
	<path id="rect3100_3_" class="st0" d="M176.8,704.2h58.4c8.8,0,16,7.1,16,16l0,58.4c0,8.8-7.1,16-16,16h-58.4c-8.8,0-16-7.1-16-16
		v-58.4C160.8,711.3,167.9,704.2,176.8,704.2z"/>
	<path id="rect3102_3_" class="st1" d="M269.2,813.8h19.7c3,0,5.4,2.4,5.4,5.4v19.7c0,3-2.4,5.4-5.4,5.4h-19.7c-3,0-5.4-2.4-5.4-5.4
		v-19.7C263.7,816.2,266.2,813.8,269.2,813.8z"/>
	<path id="rect3094_4_" class="st1" d="M109.2,615.8H142c4.9,0,9,4,9,9v32.8c0,4.9-4,9-9,9h-32.8c-4.9,0-9-4-9-9l0-32.8
		C100.3,619.9,104.2,615.8,109.2,615.8z"/>
	<path id="rect3098_3_" class="st1" d="M26.2,658h47c7.1,0,12.9,5.7,12.9,12.9l0,47c0,7.1-5.7,12.9-12.9,12.9h-47
		c-7.1,0-12.9-5.7-12.9-12.9l0-47C13.4,663.8,19.2,658,26.2,658z"/>
</g>
<g id="g3120_2_" transform="matrix(0.00377014,-1.2432024,-1.2432024,-0.00377014,1172.7825,806.43312)">
	<path id="rect3094_2_" class="st1" d="M177.5,622l32.8,0c4.9,0,9,4,9,9v32.8c0,4.9-4,9-9,9h-32.8c-4.9,0-9-4-9-9V631
		C168.5,626,172.5,622,177.5,622z"/>
	<path id="rect3096_2_" class="st0" d="M97.3,826h31.4c4.7,0,8.6,3.8,8.6,8.6v31.4c0,4.7-3.8,8.6-8.6,8.6H97.3
		c-4.7,0-8.6-3.8-8.6-8.6v-31.3C88.8,829.9,92.6,826,97.3,826z"/>
	<path id="rect3102_2_" class="st1" d="M64.6,893.1h19.7c3,0,5.4,2.4,5.4,5.4v19.7c0,3-2.4,5.4-5.4,5.4H64.6c-3,0-5.4-2.4-5.4-5.4
		v-19.7C59.2,895.5,61.6,893.1,64.6,893.1z"/>
	<path id="rect3096_3_" class="st0" d="M97.6,738.3H129c4.7,0,8.6,3.8,8.6,8.6v31.4c0,4.7-3.8,8.6-8.6,8.6H97.6
		c-4.7,0-8.6-3.8-8.6-8.6v-31.3C89.1,742.2,92.9,738.3,97.6,738.3z"/>
</g>
<g id="g3120_7_" transform="matrix(0.00377014,-1.2432024,-1.2432024,-0.00377014,1172.7825,806.43312)">
	<path id="rect3100_5_" class="st0" d="M585,828h33.9c5.1,0,9.3,4.1,9.3,9.3v33.9c0,5.1-4.1,9.3-9.3,9.3H585c-5.1,0-9.3-4.1-9.3-9.3
		v-33.9C575.7,832.1,579.9,828,585,828z"/>
	<path id="rect3102_7_" class="st1" d="M510.5,867.7h19.7c3,0,5.4,2.4,5.4,5.4v19.7c0,3-2.4,5.4-5.4,5.4h-19.7c-3,0-5.4-2.4-5.4-5.4
		v-19.7C505.1,870.1,507.6,867.7,510.5,867.7z"/>
	<path id="rect3252_3_" class="st0" d="M534.9,689.3h51.6c7.8,0,14.1,6.3,14.1,14.1v51.6c0,7.8-6.3,14.1-14.1,14.1h-51.6
		c-7.8,0-14.1-6.3-14.1-14.1l0-51.6C520.7,695.7,527.1,689.3,534.9,689.3z"/>
</g>
<g id="g3120_6_" transform="matrix(0.00377014,-1.2432024,-1.2432024,-0.00377014,1172.7825,806.43312)">
	<path id="rect3094_6_" class="st1" d="M429.6,718.2h32.8c4.9,0,9,4,9,9V760c0,4.9-4,9-9,9h-32.8c-4.9,0-9-4-9-9v-32.8
		C420.6,722.2,424.7,718.2,429.6,718.2z"/>
	<path id="rect3096_6_" class="st0" d="M445.8,823.7h31.4c4.7,0,8.6,3.8,8.6,8.6v31.4c0,4.7-3.8,8.6-8.6,8.6h-31.4
		c-4.7,0-8.6-3.8-8.6-8.6v-31.3C437.3,827.6,441.1,823.7,445.8,823.7z"/>
	<path id="rect3102_6_" class="st1" d="M306.8,863.4h19.7c3,0,5.4,2.4,5.4,5.4v19.7c0,3-2.4,5.4-5.4,5.4h-19.7c-3,0-5.4-2.4-5.4-5.4
		v-19.7C301.4,865.8,303.8,863.4,306.8,863.4z"/>
	<path id="rect3252_2_" class="st0" d="M341,782.2h42.3c6.4,0,11.6,5.2,11.6,11.6v42.3c0,6.4-5.2,11.5-11.6,11.5H341
		c-6.4,0-11.6-5.2-11.6-11.6l0-42.3C329.4,787.4,334.6,782.2,341,782.2z"/>
</g>
<g id="g3120_8_" transform="matrix(0.00377014,-1.2432024,-1.2432024,-0.00377014,1172.7825,806.43312)">
	<path id="rect3094_7_" class="st1" d="M36.2,377.5l0-32.8c0-4.9,4-9,9-9H78c4.9,0,9,4,9,9l0,32.8c0,4.9-4,9-9,9H45.2
		C40.2,386.4,36.2,382.4,36.2,377.5z"/>
	<path id="rect3098_2_" class="st1" d="M140.8,492.5l0-47c0-7.1,5.7-12.9,12.9-12.9h47c7.1,0,12.9,5.7,12.9,12.9l0,47
		c0,7.1-5.7,12.9-12.9,12.9l-47,0C146.6,505.3,140.8,499.5,140.8,492.5z"/>
	<path id="rect3100_2_" class="st0" d="M16.1,489l0-58.4c0-8.8,7.1-16,16-16h58.4c8.8,0,16,7.1,16,16l0,58.4c0,8.8-7.1,16-16,16
		H32.1C23.3,505,16.1,497.8,16.1,489z"/>
	<path id="rect3102_8_" class="st1" d="M125.7,396.6v-19.7c0-3,2.4-5.4,5.4-5.4h19.7c3,0,5.4,2.4,5.4,5.4v19.7c0,3-2.4,5.4-5.4,5.4
		h-19.7C128.1,402,125.7,399.6,125.7,396.6z"/>
</g>
<g id="g3120_5_" transform="matrix(0.00377014,-1.2432024,-1.2432024,-0.00377014,1172.7825,806.43312)">
	<path id="rect3096_7_" class="st0" d="M137.9,568.4V537c0-4.7,3.8-8.6,8.6-8.6h31.4c4.7,0,8.6,3.8,8.6,8.6v31.4
		c0,4.7-3.8,8.6-8.6,8.6h-31.3C141.8,576.9,137.9,573.1,137.9,568.4z"/>
	<path id="rect3102_5_" class="st1" d="M205.1,601.1v-19.7c0-3,2.4-5.4,5.4-5.4h19.7c3,0,5.4,2.4,5.4,5.4v19.7c0,3-2.4,5.4-5.4,5.4
		h-19.7C207.5,606.5,205.1,604.1,205.1,601.1z"/>
	<path id="rect3096_5_" class="st0" d="M50.2,568.1l0-31.4c0-4.7,3.8-8.6,8.6-8.6h31.4c4.7,0,8.6,3.8,8.6,8.6l0,31.4
		c0,4.7-3.8,8.6-8.6,8.6H58.8C54.1,576.7,50.2,572.9,50.2,568.1z"/>
</g>
<g id="g3120_4_" transform="matrix(0.00377014,-1.2432024,-1.2432024,-0.00377014,1172.7825,806.43312)">
	<path id="rect3102_4_" class="st1" d="M175.4,359v-19.7c0-3,2.4-5.4,5.4-5.4h19.7c3,0,5.4,2.4,5.4,5.4V359c0,3-2.4,5.4-5.4,5.4
		h-19.7C177.8,364.3,175.4,361.9,175.4,359z"/>
</g>
</svg>
